# xmcd CD database file
#
# Track frame offsets:
#	150
#	13112
#	36147
#	56107
#	74202
#	88077
#	105500
#	124637
#	145877
#	165859
#	180640
#	194042
#	212860
#	229215
#
# Disc length: 3227 seconds
#
# Revision: 0
# Processed by: cddbd v1.5.1PL0 Copyright (c) Steve Scherf et al.
# Submitted via: CDex 1.51
#
DISCID=ce0c990e
DTITLE=Reve Boheme - Djangos Dream
DYEAR=2005
DGENRE=Jazz
TTITLE0=Feerie
TTITLE1=Peche a la mouche
TTITLE2=Vette
TTITLE3=Djangos dream
TTITLE4=Place de Brouckere
TTITLE5=Dinette
TTITLE6=Webster
TTITLE7=Porto Cabollo
TTITLE8=Swing 39
TTITLE9=Stockholm
TTITLE10=Hungaria
TTITLE11=Nocturne
TTITLE12=Belleville
TTITLE13=Improvisation #2
EXTD=YEAR: 2005
EXTT0=
EXTT1=
EXTT2=
EXTT3=
EXTT4=
EXTT5=
EXTT6=
EXTT7=
EXTT8=
EXTT9=
EXTT10=
EXTT11=
EXTT12=
EXTT13=
PLAYORDER=
